<?xml version="1.0" encoding="UTF-8"?>
<!DOCTYPE svg PUBLIC "-//W3C//DTD SVG 1.1//EN" "http://www.w3.org/Graphics/SVG/1.1/DTD/svg11.dtd">
<!-- Creator: CorelDRAW -->
<svg xmlns="http://www.w3.org/2000/svg" xml:space="preserve" width="300px" height="100px" version="1.1" style="shape-rendering:geometricPrecision; text-rendering:geometricPrecision; image-rendering:optimizeQuality; fill-rule:evenodd; clip-rule:evenodd"
viewBox="0 0 300 100"
 xmlns:xlink="http://www.w3.org/1999/xlink"
 xmlns:xodm="http://www.corel.com/coreldraw/odm/2003">
 <defs>
  <style type="text/css">
   <![CDATA[
    .fil1 {fill:#C71C81;fill-rule:nonzero}
    .fil0 {fill:black;fill-rule:nonzero}
   ]]>
  </style>
 </defs>
 <g id="Livello_x0020_1">
  <metadata id="CorelCorpID_0Corel-Layer"/>
  <g id="_2249952505552">
   <g>
    <path class="fil0" d="M121.08 63.386c-2.109,1.302 -4.636,1.948 -7.572,1.948 -3.876,0 -7.011,-1.33 -9.386,-3.99 -2.375,-2.66 -3.562,-6.147 -3.562,-10.441 0,-4.531 1.339,-8.227 4.009,-11.115 2.679,-2.878 6.108,-4.322 10.307,-4.322 2.166,0 4.275,0.446 6.318,1.339l0 2.888c-2.043,-1.263 -4.275,-1.89 -6.707,-1.89 -3.344,0 -6.052,1.197 -8.132,3.6 -2.081,2.404 -3.116,5.51 -3.116,9.329 0,3.686 0.95,6.66 2.85,8.902 1.909,2.242 4.417,3.363 7.533,3.363 2.86,0 5.349,-0.76 7.458,-2.28l0 2.669z"/>
    <path id="_1" class="fil0" d="M147.29 64.65l0 -17.081c0,-3.373 -0.608,-5.852 -1.833,-7.42 -1.226,-1.567 -3.145,-2.346 -5.739,-2.346 -2.45,0 -4.607,0.959 -6.459,2.869 -1.853,1.909 -2.784,4.645 -2.784,8.198l0 15.78 -2.565 0 0 -42.18 2.565 0 0 18.81 0.114 0c2.242,-3.876 5.51,-5.814 9.794,-5.814 3.088,0 5.434,0.988 7.05,2.973 1.615,1.986 2.422,4.836 2.422,8.541l0 17.67 -2.565 0z"/>
    <path id="_2" class="fil0" d="M159.042 50.514c0,3.914 0.902,6.973 2.717,9.177 1.805,2.204 4.284,3.306 7.438,3.306 3.183,0 6.299,-1.178 9.339,-3.534l0 2.726c-2.945,2.1 -6.242,3.145 -9.88,3.145 -3.668,0 -6.641,-1.321 -8.902,-3.952 -2.261,-2.632 -3.391,-6.346 -3.391,-11.153 0,-4.152 1.187,-7.648 3.553,-10.498 2.365,-2.84 5.434,-4.265 9.224,-4.265 3.543,0 6.26,1.244 8.151,3.724 1.891,2.489 2.84,5.88 2.84,10.184l0 1.14 -21.089 0zm18.41 -2.337c-0.114,-3.278 -0.902,-5.833 -2.365,-7.648 -1.463,-1.814 -3.486,-2.726 -6.061,-2.726 -2.67,0 -4.883,0.893 -6.631,2.688 -1.748,1.786 -2.831,4.351 -3.239,7.686l18.296 0z"/>
    <path id="_3" class="fil0" d="M198.637 65.334c-4.161,0 -7.448,-1.368 -9.87,-4.104 -2.423,-2.736 -3.629,-6.289 -3.629,-10.659 0,-4.731 1.263,-8.427 3.8,-11.096 2.527,-2.67 5.861,-4.009 10.003,-4.009 4.057,0 7.268,1.33 9.624,3.98 2.356,2.651 3.534,6.318 3.534,11.011 0,4.427 -1.197,8.018 -3.601,10.763 -2.403,2.746 -5.69,4.114 -9.861,4.114zm0.19 -27.531c-3.353,0 -6.032,1.13 -8.018,3.391 -1.994,2.261 -2.992,5.406 -2.992,9.424 0,3.734 0.969,6.726 2.916,8.987 1.948,2.261 4.608,3.392 7.98,3.392 3.43,0 6.071,-1.112 7.923,-3.335 1.853,-2.223 2.784,-5.31 2.784,-9.262 0,-4.057 -0.922,-7.173 -2.765,-9.348 -1.843,-2.166 -4.455,-3.249 -7.828,-3.249z"/>
    <path id="_4" class="fil0" d="M221.846 59.577l-0.114 0 0 18.183 -2.565 0 0 -41.61 2.565 0 0 5.88 0.114 0c1.017,-2.099 2.48,-3.714 4.379,-4.854 1.9,-1.14 3.99,-1.71 6.271,-1.71 3.619,0 6.441,1.244 8.474,3.743 2.033,2.489 3.049,5.88 3.049,10.165 0,4.759 -1.168,8.616 -3.496,11.552 -2.327,2.935 -5.396,4.408 -9.215,4.408 -4.275,0 -7.429,-1.919 -9.462,-5.757zm-0.114 -10.593l0 3.582c0,2.859 0.902,5.31 2.698,7.362 1.795,2.043 4.161,3.069 7.096,3.069 2.907,0 5.273,-1.245 7.087,-3.743 1.815,-2.489 2.727,-5.767 2.727,-9.823 0,-3.563 -0.836,-6.394 -2.498,-8.484 -1.673,-2.099 -3.895,-3.144 -6.679,-3.144 -3.316,0 -5.89,1.111 -7.704,3.334 -1.815,2.223 -2.727,4.845 -2.727,7.847z"/>
    <path id="_5" class="fil0" d="M251.714 50.514c0,3.914 0.902,6.973 2.717,9.177 1.805,2.204 4.284,3.306 7.438,3.306 3.183,0 6.299,-1.178 9.339,-3.534l0 2.726c-2.945,2.1 -6.242,3.145 -9.88,3.145 -3.667,0 -6.641,-1.321 -8.902,-3.952 -2.261,-2.632 -3.391,-6.346 -3.391,-11.153 0,-4.152 1.187,-7.648 3.553,-10.498 2.365,-2.84 5.434,-4.265 9.224,-4.265 3.544,0 6.261,1.244 8.151,3.724 1.891,2.489 2.841,5.88 2.841,10.184l0 1.14 -21.09 0zm18.411 -2.337c-0.114,-3.278 -0.902,-5.833 -2.366,-7.648 -1.463,-1.814 -3.486,-2.726 -6.06,-2.726 -2.67,0 -4.884,0.893 -6.632,2.688 -1.748,1.786 -2.831,4.351 -3.239,7.686l18.297 0z"/>
    <path id="_6" class="fil0" d="M291.148 64.26c-1.339,0.637 -2.593,0.96 -3.762,0.96 -4.218,0 -6.327,-2.527 -6.327,-7.572l0 -19.161 -5.12 0 0 -2.337 5.12 0 0 -7.401c0.409,-0.152 0.836,-0.294 1.283,-0.446 0.446,-0.133 0.874,-0.266 1.282,-0.418l0 8.265 7.524 0 0 2.337 -7.524 0 0 18.8c0,1.967 0.314,3.392 0.931,4.275 0.627,0.884 1.682,1.321 3.164,1.321 1.064,0 2.204,-0.342 3.429,-1.026l0 2.403z"/>
   </g>
   <g>
    <polygon class="fil1" points="52.852,25.15 58.152,26.85 54.252,22.05 49.952,27.25 "/>
    <polygon class="fil1" points="42.452,47.75 27.452,54.25 40.652,51.75 81.452,54.75 "/>
    <polygon class="fil1" points="38.252,56.95 38.152,56.95 18.252,65.15 36.352,61.55 90.752,65.95 "/>
    <polygon class="fil1" points="8.852,76.45 30.852,73.05 100.752,77.95 33.852,66.45 "/>
    <polygon class="fil1" points="44.452,33.85 49.152,33.25 65.652,35.75 49.852,31.65 "/>
    <polygon class="fil1" points="45.552,41.05 72.052,43.45 46.852,38.25 36.852,42.95 "/>
   </g>
  </g>
 </g>
</svg>
