<?xml version="1.0" encoding="UTF-8"?>
<!DOCTYPE svg PUBLIC "-//W3C//DTD SVG 1.1//EN" "http://www.w3.org/Graphics/SVG/1.1/DTD/svg11.dtd">
<!-- Creator: CorelDRAW -->
<svg xmlns="http://www.w3.org/2000/svg" xml:space="preserve" width="300px" height="80px" version="1.1" style="shape-rendering:geometricPrecision; text-rendering:geometricPrecision; image-rendering:optimizeQuality; fill-rule:evenodd; clip-rule:evenodd"
viewBox="0 0 300 80"
 xmlns:xlink="http://www.w3.org/1999/xlink"
 xmlns:xodm="http://www.corel.com/coreldraw/odm/2003">
 <defs>
  <style type="text/css">
   <![CDATA[
    .fil0 {fill:#EBECEC;fill-rule:nonzero}
    .fil1 {fill:#C71C81;fill-rule:nonzero}
   ]]>
  </style>
 </defs>
 <g id="Livello_x0020_1">
  <metadata id="CorelCorpID_0Corel-Layer"/>
  <g id="_1978774851456">
   <path class="fil0" d="M119.603 54.07c-2.216,1.368 -4.873,2.047 -7.958,2.047 -4.074,0 -7.369,-1.398 -9.865,-4.194 -2.496,-2.796 -3.745,-6.46 -3.745,-10.973 0,-4.763 1.408,-8.647 4.214,-11.683 2.816,-3.025 6.421,-4.543 10.834,-4.543 2.276,0 4.493,0.469 6.64,1.408l0 3.035c-2.147,-1.328 -4.493,-1.987 -7.049,-1.987 -3.515,0 -6.361,1.258 -8.548,3.785 -2.186,2.526 -3.275,5.791 -3.275,9.805 0,3.874 0.999,6.999 2.996,9.356 2.007,2.356 4.643,3.534 7.918,3.534 3.005,0 5.622,-0.798 7.838,-2.396l0 2.806z"/>
   <path id="_1" class="fil0" d="M147.151 55.398l0 -17.953c0,-3.545 -0.638,-6.151 -1.927,-7.798 -1.288,-1.648 -3.305,-2.467 -6.031,-2.467 -2.576,0 -4.842,1.009 -6.789,3.016 -1.947,2.007 -2.926,4.883 -2.926,8.617l0 16.585 -2.696 0 0 -44.334 2.696 0 0 19.771 0.12 0c2.356,-4.074 5.791,-6.111 10.294,-6.111 3.246,0 5.712,1.038 7.409,3.125 1.698,2.087 2.546,5.083 2.546,8.977l0 18.572 -2.696 0z"/>
   <path id="_2" class="fil0" d="M159.503 40.54c0,4.114 0.948,7.329 2.856,9.646 1.897,2.316 4.503,3.474 7.818,3.474 3.345,0 6.62,-1.238 9.815,-3.714l0 2.866c-3.095,2.206 -6.56,3.305 -10.384,3.305 -3.855,0 -6.98,-1.388 -9.356,-4.154 -2.377,-2.766 -3.565,-6.67 -3.565,-11.722 0,-4.364 1.248,-8.038 3.734,-11.034 2.487,-2.985 5.712,-4.483 9.696,-4.483 3.724,0 6.58,1.308 8.567,3.914 1.987,2.616 2.985,6.181 2.985,10.704l0 1.198 -22.166 0zm19.351 -2.456c-0.12,-3.445 -0.949,-6.131 -2.487,-8.038 -1.537,-1.907 -3.664,-2.866 -6.37,-2.866 -2.806,0 -5.132,0.939 -6.97,2.826 -1.837,1.877 -2.975,4.573 -3.404,8.078l19.231 0z"/>
   <path id="_3" class="fil0" d="M201.12 56.117c-4.373,0 -7.828,-1.438 -10.374,-4.314 -2.546,-2.876 -3.814,-6.61 -3.814,-11.203 0,-4.972 1.328,-8.856 3.994,-11.662 2.656,-2.806 6.16,-4.214 10.514,-4.214 4.263,0 7.638,1.398 10.114,4.184 2.477,2.786 3.715,6.64 3.715,11.572 0,4.653 -1.258,8.428 -3.784,11.313 -2.527,2.886 -5.981,4.324 -10.365,4.324zm0.2 -28.937c-3.525,0 -6.341,1.189 -8.428,3.565 -2.096,2.376 -3.145,5.681 -3.145,9.905 0,3.924 1.019,7.069 3.066,9.446 2.047,2.376 4.843,3.564 8.387,3.564 3.605,0 6.381,-1.168 8.328,-3.504 1.947,-2.337 2.925,-5.582 2.925,-9.736 0,-4.263 -0.968,-7.538 -2.906,-9.825 -1.936,-2.276 -4.682,-3.415 -8.227,-3.415z"/>
   <path id="_4" class="fil0" d="M225.513 50.066l-0.119 0 0 19.111 -2.696 0 0 -43.734 2.696 0 0 6.181 0.119 0c1.069,-2.207 2.607,-3.905 4.604,-5.103 1.997,-1.198 4.193,-1.797 6.59,-1.797 3.804,0 6.769,1.308 8.906,3.934 2.137,2.616 3.205,6.181 3.205,10.684 0,5.002 -1.228,9.057 -3.674,12.142 -2.446,3.085 -5.672,4.633 -9.686,4.633 -4.493,0 -7.808,-2.017 -9.945,-6.051zm-0.119 -11.133l0 3.764c0,3.005 0.948,5.582 2.835,7.738 1.888,2.147 4.374,3.225 7.459,3.225 3.056,0 5.542,-1.308 7.449,-3.934 1.907,-2.616 2.865,-6.06 2.865,-10.324 0,-3.744 -0.878,-6.72 -2.626,-8.917 -1.757,-2.206 -4.093,-3.305 -7.019,-3.305 -3.485,0 -6.191,1.168 -8.098,3.505 -1.907,2.337 -2.865,5.093 -2.865,8.248z"/>
   <path id="_5" class="fil0" d="M256.906 40.54c0,4.114 0.949,7.329 2.856,9.646 1.897,2.316 4.503,3.474 7.818,3.474 3.345,0 6.62,-1.238 9.815,-3.714l0 2.866c-3.095,2.206 -6.56,3.305 -10.384,3.305 -3.854,0 -6.98,-1.388 -9.356,-4.154 -2.376,-2.766 -3.565,-6.67 -3.565,-11.722 0,-4.364 1.248,-8.038 3.735,-11.034 2.486,-2.985 5.711,-4.483 9.695,-4.483 3.724,0 6.58,1.308 8.567,3.914 1.987,2.616 2.986,6.181 2.986,10.704l0 1.198 -22.167 0zm19.351 -2.456c-0.12,-3.445 -0.948,-6.131 -2.486,-8.038 -1.538,-1.907 -3.665,-2.866 -6.371,-2.866 -2.805,0 -5.132,0.939 -6.969,2.826 -1.837,1.877 -2.976,4.573 -3.405,8.078l19.231 0z"/>
   <path id="_6" class="fil0" d="M298.354 54.989c-1.408,0.668 -2.726,1.008 -3.954,1.008 -4.434,0 -6.65,-2.656 -6.65,-7.958l0 -20.14 -5.382 0 0 -2.456 5.382 0 0 -7.778c0.429,-0.16 0.879,-0.31 1.348,-0.47 0.469,-0.139 0.918,-0.279 1.348,-0.439l0 8.687 7.908 0 0 2.456 -7.908 0 0 19.761c0,2.066 0.329,3.564 0.978,4.493 0.659,0.928 1.768,1.388 3.325,1.388 1.119,0 2.317,-0.36 3.605,-1.079l0 2.527z"/>
  </g>
  <g id="_1978774850016">
   <polygon class="fil1" points="47.892,13.882 53.463,15.668 49.363,10.623 44.844,16.089 "/>
   <polygon class="fil1" points="36.961,37.635 21.195,44.467 35.069,41.839 77.952,44.993 "/>
   <polygon class="fil1" points="32.547,47.305 32.442,47.305 11.526,55.924 30.55,52.14 87.727,56.764 "/>
   <polygon class="fil1" points="1.646,67.801 24.769,64.227 98.237,69.377 27.922,57.29 "/>
   <polygon class="fil1" points="39.063,23.026 44.003,22.395 61.346,25.023 44.739,20.713 "/>
   <polygon class="fil1" points="40.219,30.593 68.072,33.116 41.586,27.65 31.075,32.59 "/>
  </g>
 </g>
</svg>
